<svg xmlns="http://www.w3.org/2000/svg" viewBox="0 0 1024 1024" fill="#000000">
  <path d="M679.770142,78.146072 C720.040833,102.375458 753.649292,133.181976 780.322754,171.566437 C804.171143,205.885620 821.173584,243.253418 830.492188,283.933411 C840.157593,326.127197 852.562012,367.523804 865.168274,408.886047 C875.398560,442.452484 885.147827,476.166840 895.554077,509.677856 C902.453857,531.897461 908.573486,554.364258 916.356079,576.307922 C919.455811,585.047852 913.946594,595.153381 903.923157,597.189819 C889.909790,600.036743 875.722961,602.052856 861.582397,604.243591 C848.604248,606.254272 835.595642,608.073120 822.585144,609.865967 C819.629028,610.273254 818.266418,611.620483 817.950989,614.630127 C816.129395,632.010437 814.128784,649.371887 812.291016,666.750610 C810.365662,684.957031 808.281616,703.153015 806.782898,721.395996 C805.612488,735.643372 802.964722,749.424683 796.508789,762.245789 C786.768494,781.589111 772.646790,796.226013 751.521240,803.069519 C744.513367,805.339722 737.189270,806.405640 729.952698,806.961060 C697.493469,809.452393 665.043335,808.281738 632.625000,805.760193 C626.814331,805.308228 620.982544,805.100281 615.182007,804.552490 C610.714600,804.130615 610.388733,807.714905 609.689697,810.335388 C607.505432,818.523438 605.722778,826.818909 603.802307,835.076904 C599.020874,855.636719 594.214417,876.190796 589.482788,896.762024 C583.631653,922.200439 577.880005,947.661743 572.011658,973.096191 C570.150696,981.161560 570.042664,981.117249 561.627808,981.116272 C437.961273,981.101868 314.294739,981.091736 190.628220,981.085999 C183.705902,981.085693 183.237228,980.217957 184.961227,973.511658 C190.052841,953.705444 194.916428,933.840820 199.910004,914.009277 C204.944565,894.015015 210.098724,874.050598 215.073364,854.041504 C222.457291,824.341736 229.786880,794.628113 237.031662,764.894165 C243.525085,738.243835 249.939804,711.573853 256.245697,684.878662 C258.269379,676.311646 259.817505,667.624390 260.508850,658.833679 C261.021820,652.310730 258.491425,647.033569 253.908966,642.288757 C241.750595,629.699585 230.206528,616.575134 219.872314,602.393005 C195.450470,568.877869 176.835129,532.433411 163.592987,493.148804 C149.293991,450.728851 145.197205,407.193848 147.361801,362.668915 C148.801437,333.056305 153.349258,304.083588 161.766953,275.763275 C178.757889,218.599335 208.330109,168.761566 250.827621,126.880119 C280.429871,97.706985 314.710266,75.248291 352.581573,58.137341 C379.135132,46.139946 406.884094,38.091454 435.479370,33.198376 C462.465637,28.580641 489.728973,28.083532 517.103394,29.413372 C536.460205,30.353716 555.574707,32.641693 574.463562,36.664009 C610.553528,44.349255 644.535217,57.610329 676.363342,76.326988 C677.366516,76.916885 678.417969,77.424744 679.770142,78.146072 M323.761139,243.240601 C289.829895,290.035400 275.567688,342.444946 279.439270,399.886780 C281.152252,425.301605 286.784821,449.907013 297.173889,473.239349 C330.135864,547.267273 386.711243,592.838806 465.452240,610.227661 C502.915100,618.500854 540.506104,616.481873 577.478088,605.192139 C611.659912,594.754333 642.157288,577.898254 668.482605,553.794128 C713.634644,512.451904 738.632629,460.933777 743.463501,400.063110 C746.426758,362.725555 741.006287,326.276337 726.370361,291.579956 C704.758606,240.346344 669.094604,201.658401 619.971741,175.878372 C569.256042,149.262436 515.637390,142.282455 459.618713,154.915268 C403.691467,167.527481 358.933868,197.369568 323.761139,243.240601z"/>
  <path d="M530.532593,245.343216 C583.836609,254.452271 620.806702,283.596069 641.019714,333.303955 C652.020020,360.355713 653.564148,388.526611 645.779846,416.527405 C632.589417,463.974457 602.135986,496.275238 555.849976,512.857117 C501.304504,532.397949 440.008087,514.420715 403.648834,470.216705 C378.316620,439.418915 368.041565,403.842926 373.522461,364.001007 C379.234955,322.475037 399.647522,289.934296 434.301147,266.835083 C463.251343,247.537628 495.540436,240.803421 530.532593,245.343216z"/>
</svg>
